<svg width="131" height="114" viewBox="0 0 131 114" fill="none" xmlns="http://www.w3.org/2000/svg">
<path d="M36.3351 48.9311L18.0562 62.6072C8.99237 69.388 7.0289 82.1378 13.5403 91.3172L13.8561 91.7514L16.7199 95.5786C23.5008 104.642 36.2505 106.606 45.4299 100.095L45.8641 99.7777L68.4668 82.8687C77.5304 76.0881 79.4936 63.3381 72.9826 54.1588L72.6658 53.7236L70.3392 50.6136L75.2981 47.6835L77.2355 50.2731L77.2356 50.2741L77.4544 50.5699L77.4544 50.5708C85.9229 62.1944 83.5846 78.4629 72.1889 87.231L71.8779 87.4677L49.2935 104.363L49.0169 104.567C37.5688 112.908 21.6143 110.765 12.7583 99.8112L12.3427 99.2826L12.1341 99.0081L12.1351 99.008L9.27126 95.1817C0.562221 83.5404 2.84701 67.0829 14.333 58.245L14.645 58.0082L14.644 58.0073L36.4161 41.7193L36.3351 48.9311ZM82.1199 8.92522C93.5681 0.584783 109.523 2.72711 118.378 13.6813L118.794 14.2089L119.002 14.4825L119.002 14.4835L121.866 18.3108C130.575 29.9531 128.289 46.4123 116.801 55.2495L116.511 55.4692L94.7197 71.7713L94.8007 64.5595L113.08 50.8844L113.081 50.8853C122.144 44.1048 124.108 31.3548 117.597 22.1753L117.281 21.7402L114.417 17.9129C107.636 8.84974 94.8871 6.88622 85.7078 13.397L85.2727 13.7138L62.67 30.6238C53.6068 37.4045 51.6429 50.1543 58.1542 59.3337L58.471 59.7679L60.7965 62.877L55.8377 65.8071L53.8861 63.1983L53.6814 62.9207L53.6824 62.9207C45.2095 51.291 47.5548 35.0112 58.9661 26.2465L58.9651 26.2455L59.2397 26.0389L81.826 9.14205L82.1199 8.92522Z" stroke="url(#paint0_linear_127_137)" stroke-width="7.28732"/>
<defs>
<linearGradient id="paint0_linear_127_137" x1="67.4759" y1="112.517" x2="59.8297" y2="29.4396" gradientUnits="userSpaceOnUse">
<stop stop-color="#DB8A28"/>
<stop offset="0.5" stop-color="#F1DD48"/>
<stop offset="1" stop-color="#42A08E"/>
</linearGradient>
</defs>
</svg>
