<svg width="92" height="92" viewBox="0 0 92 92" fill="none" xmlns="http://www.w3.org/2000/svg">
<path d="M43.985 0.302515C67.4565 -0.549586 87.614 16.6059 90.7418 39.6451L69.8538 40.934C67.4647 29.0044 56.5762 20.3719 44.0928 21.1421C30.4636 21.983 20.0969 33.7132 20.9378 47.3424C21.7788 60.9716 33.509 71.3384 47.1382 70.4974C59.4416 69.7382 69.0852 60.1051 70.2265 48.2119L91.1477 46.921C90.6079 70.3255 72.2144 89.811 48.4205 91.2792L47.246 91.337C23.0341 92.2161 2.34733 73.9337 0.243084 49.7974L0.156052 48.6247C-1.39309 23.5182 17.704 1.90945 42.8105 0.360306L43.985 0.302515Z" fill="url(#paint0_linear_127_141)"/>
<defs>
<linearGradient id="paint0_linear_127_141" x1="38.1067" y1="90.5385" x2="53.5901" y2="22.0664" gradientUnits="userSpaceOnUse">
<stop stop-color="#DB8A28"/>
<stop offset="0.342473" stop-color="#F1DD48"/>
<stop offset="0.984694" stop-color="#42A08E"/>
</linearGradient>
</defs>
</svg>
